<svg xmlns="http://www.w3.org/2000/svg" viewBox="0 0 100 100" width="100" height="100">
  <defs>
    <linearGradient id="felt" x1="0" y1="0" x2="0" y2="1">
      <stop offset="0" stop-color="#1a874f"/>
      <stop offset="1" stop-color="#0a4f2c"/>
    </linearGradient>
  </defs>
  <!-- chip body -->
  <circle cx="50" cy="50" r="49" fill="url(#felt)"/>
  <!-- chip edge spots -->
  <circle cx="50" cy="50" r="43" fill="none" stroke="#f4eddb" stroke-width="7"
          stroke-dasharray="16 17.8" stroke-linecap="butt"/>
  <!-- chip face -->
  <circle cx="50" cy="50" r="34" fill="#0c5a33" stroke="#f4eddb" stroke-width="2.5"/>
  <!-- spade -->
  <path transform="translate(27.5 27.5) scale(1.875)"
        fill="#f4eddb"
        d="M12 2C9 6 4 9 4 13.5C4 16 6 18 8.5 18C9.5 18 10.4 17.6 11 17C10.7 19 10 20.5 8.5 21.5H15.5C14 20.5 13.3 19 13 17C13.6 17.6 14.5 18 15.5 18C18 18 20 16 20 13.5C20 9 15 6 12 2Z"/>
</svg>
